<?xml version="1.0" standalone="no"?>
<!DOCTYPE svg PUBLIC "-//W3C//DTD SVG 20010904//EN"
 "http://www.w3.org/TR/2001/REC-SVG-20010904/DTD/svg10.dtd">
<svg version="1.0" xmlns="http://www.w3.org/2000/svg"
 width="540.000000pt" height="360.000000pt" viewBox="0 0 540.000000 360.000000"
 preserveAspectRatio="xMidYMid meet">

<g transform="translate(0.000000,360.000000) scale(0.100000,-0.100000)"
fill="#000000" stroke="none">
<path d="M1875 3224 c-11 -3 -47 -9 -80 -16 -72 -13 -76 -15 -69 -33 3 -8 20
-15 37 -17 30 -3 32 -6 35 -43 2 -22 -1 -58 -6 -80 -7 -34 -12 -41 -37 -45
l-30 -5 -1 -110 c0 -61 -4 -119 -7 -130 -6 -17 -83 -55 -110 -55 -4 0 -7 37
-9 83 l-3 82 -50 13 c-59 16 -250 11 -284 -7 -22 -12 -22 -14 -19 -216 l3
-204 -23 -11 c-13 -5 -31 -10 -41 -10 -10 0 -26 -9 -35 -19 -10 -10 -34 -22
-54 -26 -77 -14 -112 -50 -112 -115 l0 -30 134 1 c74 0 177 -3 229 -7 l95 -7
7 -86 c8 -103 39 -265 63 -329 15 -40 17 -64 10 -165 -7 -116 -7 -119 18 -157
49 -73 53 -109 60 -476 6 -260 4 -344 -5 -344 -8 0 -9 -13 -5 -43 6 -40 6 -41
-10 -22 -16 19 -17 18 -11 -30 3 -27 9 -63 12 -80 7 -30 7 -30 14 10 3 23 7
-26 8 -111 l1 -152 -47 -10 -48 -10 47 -1 c42 -1 48 -4 48 -24 1 -12 4 -59 6
-105 l6 -82 54 0 54 0 0 59 c0 38 5 63 14 70 12 10 12 16 1 37 -9 19 -13 82
-14 230 -2 222 4 252 57 307 26 28 27 32 30 172 l3 143 31 6 30 6 -6 272 c-5
271 -5 273 12 218 15 -47 22 -55 45 -58 23 -3 27 0 27 20 -1 13 -7 40 -15 61
-9 26 -14 92 -15 198 -1 141 2 164 20 208 19 43 26 49 56 53 39 5 56 -9 30
-24 -9 -5 -16 -21 -16 -36 0 -16 -5 -33 -11 -39 -15 -15 -14 -425 1 -453 6
-11 9 -35 6 -53 -13 -80 -17 -186 -10 -273 l7 -94 28 0 c16 0 29 5 29 10 0 6
5 10 10 10 6 0 10 -6 9 -13 -1 -6 -1 -52 0 -102 3 -105 12 -94 36 42 16 94 21
318 6 309 -9 -6 -21 89 -21 176 0 33 -3 57 -7 55 -5 -3 -9 50 -11 116 -1 83
-6 123 -15 129 -20 13 -27 9 -28 -14 -1 -19 -2 -18 -10 7 -5 17 -6 37 -3 45
12 28 14 100 4 100 -5 0 -10 9 -10 20 0 15 7 20 26 20 14 0 23 -4 19 -10 -3
-5 -1 -10 4 -10 6 0 11 4 11 9 0 13 36 20 51 10 10 -6 9 -12 -7 -26 -18 -15
-21 -28 -18 -73 1 -30 4 -115 6 -187 2 -73 6 -133 11 -133 4 0 7 -15 6 -32 -1
-32 -1 -32 -10 -8 -8 26 -5 -47 8 -140 4 -36 7 -41 14 -25 4 12 8 -31 8 -105
1 -134 -16 -256 -50 -358 -27 -80 -20 -119 28 -169 l37 -38 8 -229 c5 -166 4
-233 -4 -243 -8 -11 -6 -18 10 -34 12 -11 22 -28 22 -39 0 -10 5 -22 11 -25 5
-4 9 -17 8 -28 -3 -44 0 -47 51 -47 29 0 50 5 50 11 0 5 -4 7 -10 4 -13 -8
-13 18 0 31 5 5 11 18 13 29 4 31 16 45 37 45 18 0 19 -5 13 -60 l-6 -60 91 0
91 0 7 45 c3 25 4 52 0 60 -7 18 13 20 48 4 25 -12 36 -35 36 -79 0 -18 6 -26
19 -27 16 -1 20 8 25 51 4 29 4 65 0 80 -7 28 -9 28 144 29 18 0 21 4 16 16
-4 9 -9 55 -12 103 -2 49 -8 86 -13 83 -4 -3 -22 14 -38 37 -17 24 -37 50 -44
58 -25 27 -37 107 -37 254 0 163 3 158 -80 145 -63 -10 -131 0 -137 20 -10 34
-19 43 -55 56 l-37 12 -3 -46 c-3 -42 -5 -46 -31 -49 -16 -2 -34 2 -42 8 -8 7
-19 9 -25 5 -5 -3 -10 -2 -10 4 0 6 -8 18 -19 28 -47 45 -32 89 34 100 30 5
33 8 24 25 -7 13 -8 63 -3 143 l7 125 35 6 c19 4 59 7 88 8 50 0 54 2 73 37
12 20 40 54 63 75 l43 38 5 210 5 210 30 21 c26 17 30 25 27 58 -4 42 15 52
20 10 2 -23 9 -29 33 -31 17 -2 34 -8 40 -13 5 -5 38 -9 72 -9 40 0 76 -6 96
-17 27 -14 30 -14 19 -1 -7 9 -12 20 -11 24 6 34 -2 44 -38 45 l-38 1 42 9
c41 10 41 10 31 42 -30 98 -40 177 -27 215 13 36 3 26 -34 -33 -37 -59 -44
-59 -65 0 -9 26 -11 18 -11 -52 l-1 -83 -178 0 -177 0 -13 65 c-6 35 -12 79
-12 97 0 17 -10 68 -22 112 -27 100 -53 129 -109 120 -34 -6 -39 -4 -53 24
-21 40 -21 39 14 47 36 8 33 16 -38 95 -31 35 -72 66 -108 84 -33 16 -53 31
-46 34 10 3 10 7 1 18 -6 8 -14 63 -17 125 l-5 110 -27 6 c-30 5 -40 35 -40
115 0 45 15 51 127 52 89 1 105 20 32 35 -63 14 -106 14 -114 1 -8 -13 -85
-13 -85 0 0 5 8 14 18 19 13 8 7 10 -28 10 -25 -1 -54 -3 -65 -5z m-5 -115 c0
-27 -4 -48 -8 -45 -12 7 -15 96 -2 96 5 0 10 -22 10 -51z m75 12 c-3 -5 -1
-12 5 -16 18 -11 12 -47 -7 -43 -12 2 -18 12 -17 28 2 38 3 40 15 40 5 0 8 -4
4 -9z m-75 -97 c0 -8 -4 -14 -10 -14 -5 0 -10 9 -10 21 0 11 5 17 10 14 6 -3
10 -13 10 -21z m95 6 c0 -22 -29 -18 -33 3 -3 14 1 18 15 15 10 -2 18 -10 18
-18z m-585 -185 c0 -8 -9 -15 -20 -15 -11 0 -20 7 -20 15 0 8 9 15 20 15 11 0
20 -7 20 -15z m166 -5 c0 -17 -6 -20 -31 -18 -19 2 -31 9 -33 21 -3 13 4 17
30 17 27 0 34 -4 34 -20z m-4 -124 c4 -122 3 -210 -1 -223 -2 -7 -14 -13 -26
-13 -23 0 -23 1 -27 158 -2 86 -3 160 -1 163 1 4 14 4 28 1 24 -4 25 -7 27
-86z m-188 28 c10 -25 -1 -29 -14 -5 -6 12 -7 21 -1 21 5 0 12 -7 15 -16z m5
-43 c11 -7 16 -37 18 -115 4 -101 3 -106 -17 -106 -18 0 -20 6 -20 63 0 34 -3
86 -6 115 -7 52 -2 60 25 43z m764 -168 c-7 -2 -19 -2 -25 0 -7 3 -2 5 12 5
14 0 19 -2 13 -5z m-86 -105 c-3 -7 -5 -2 -5 12 0 14 2 19 5 13 2 -7 2 -19 0
-25z m-439 -115 c2 -9 -6 -13 -25 -13 -49 0 -103 12 -97 22 9 14 117 5 122 -9z
m653 -242 c6 11 11 11 21 1 9 -9 8 -12 -6 -12 -11 0 -15 -4 -10 -12 5 -9 2 -9
-9 1 -9 7 -17 19 -16 25 0 6 3 5 6 -3 5 -11 7 -11 14 0z m-164 -27 c-3 -3 -12
-4 -19 -1 -8 3 -5 6 6 6 11 1 17 -2 13 -5z m-189 -24 c-7 -10 -14 -17 -17 -15
-4 4 18 35 25 35 2 0 -1 -9 -8 -20z m305 -4 c10 3 26 -4 43 -19 21 -20 27 -35
29 -81 3 -50 2 -56 -16 -56 -15 0 -19 -7 -19 -32 0 -222 -12 -733 -18 -742
-12 -19 -20 73 -21 226 -1 95 3 149 10 153 7 5 8 25 3 59 -4 28 -6 66 -6 85 1
19 -2 39 -6 45 -5 6 -9 23 -10 39 -1 20 3 27 16 27 15 1 16 2 1 13 -11 8 -17
35 -21 89 -3 43 -9 83 -15 90 -6 7 -13 22 -15 33 -3 11 -9 28 -13 38 -5 12 -2
17 9 17 9 0 15 3 15 8 -3 18 2 26 9 14 5 -7 16 -10 25 -6z m171 -133 c3 -21 6
-69 6 -107 l0 -68 19 23 c16 20 22 22 33 11 17 -17 -1 -46 -31 -50 -18 -3 -21
-10 -21 -53 0 -49 -1 -50 -27 -47 -27 3 -27 4 -28 88 -1 47 -5 109 -10 139 -8
59 6 101 35 101 12 0 19 -11 24 -37z m-602 -15 c-7 -7 -12 -8 -12 -2 0 6 3 14
7 17 3 4 9 5 12 2 2 -3 -1 -11 -7 -17z m35 -55 c-3 -10 -5 -2 -5 17 0 19 2 27
5 18 2 -10 2 -26 0 -35z m-29 -150 l-2 -168 -5 155 c-6 145 -5 180 5 180 2 0
3 -75 2 -167z m279 75 c-3 -8 -6 -5 -6 6 -1 11 2 17 5 13 3 -3 4 -12 1 -19z
m250 -330 c-2 -13 -4 -3 -4 22 0 25 2 35 4 23 2 -13 2 -33 0 -45z m-240 -10
c-2 -13 -4 -3 -4 22 0 25 2 35 4 23 2 -13 2 -33 0 -45z m-280 -110 c-2 -29 -3
-6 -3 52 0 58 1 81 3 53 2 -29 2 -77 0 -105z m355 100 c2 -21 0 -38 -4 -38 -4
0 -8 21 -7 48 1 52 6 48 11 -10z m-65 -210 c-2 -35 -3 -7 -3 62 0 69 1 97 3
63 2 -35 2 -91 0 -125z m-290 -200 c-2 -13 -4 -5 -4 17 -1 22 1 32 4 23 2 -10
2 -28 0 -40z m430 -890 c-3 -8 -6 -5 -6 6 -1 11 2 17 5 13 3 -3 4 -12 1 -19z"/>
<path d="M2210 3169 c0 -5 5 -7 10 -4 6 3 10 8 10 11 0 2 -4 4 -10 4 -5 0 -10
-5 -10 -11z"/>
<path d="M2624 3104 c-18 -14 -18 -15 4 -4 12 6 22 13 22 15 0 8 -5 6 -26 -11z"/>
<path d="M2679 3083 c-1 -13 2 -147 4 -157 1 -5 -9 -13 -23 -17 -16 -4 3 -7
50 -6 45 0 57 2 30 4 l-45 4 7 82 c8 96 6 87 18 87 6 0 10 -9 10 -19 0 -28 18
-36 22 -9 4 30 23 33 36 6 11 -23 11 -23 11 5 1 27 0 27 -59 27 -33 0 -60 -3
-61 -7z"/>
<path d="M3498 2906 c-21 -8 -49 -21 -62 -29 -27 -18 -32 -46 -41 -232 -4 -60
-8 -120 -11 -132 -6 -31 20 -30 93 4 51 24 70 27 158 27 65 1 121 -5 160 -16
33 -10 70 -20 83 -24 17 -5 22 -2 22 13 0 10 4 23 9 29 5 5 11 73 13 151 l5
142 -26 25 c-38 36 -73 46 -159 46 l-77 0 -3 -57 c-3 -83 -11 -190 -18 -245
l-6 -48 -45 0 -45 0 7 180 c8 199 11 190 -57 166z"/>
<path d="M2587 2883 c-9 -15 -10 -188 -2 -207 7 -16 2 -24 -20 -40 -15 -12
-40 -31 -54 -43 l-26 -22 71 -1 c50 0 73 4 77 13 3 7 25 19 48 26 65 18 90 33
84 49 -4 11 8 13 65 10 38 -2 70 0 70 4 0 5 -21 9 -47 10 -27 1 -77 3 -113 4
-36 2 -72 3 -81 3 -14 1 -17 16 -18 87 -1 47 -5 92 -8 100 -5 15 -38 20 -46 7z"/>
<path d="M3976 2662 c-4 -101 -6 -186 -3 -188 6 -7 21 340 15 357 -3 8 -8 -68
-12 -169z"/>
<path d="M353 2500 c-28 -11 -29 -31 -3 -55 18 -17 21 -17 45 -1 18 12 36 15
56 11 25 -6 29 -11 29 -40 0 -28 -4 -33 -31 -39 -26 -5 -30 -10 -27 -33 2 -22
-2 -28 -22 -33 -24 -6 -25 -9 -28 -105 -2 -66 1 -101 9 -105 8 -6 8 -13 0 -28
-10 -18 -8 -21 16 -25 16 -2 11 -3 -11 -1 -32 2 -43 -3 -68 -29 -16 -18 -39
-50 -50 -71 -20 -39 -20 -53 -19 -715 1 -372 4 -746 7 -831 4 -139 7 -157 25
-170 19 -15 19 -15 -1 -33 -12 -10 -20 -29 -20 -49 0 -22 3 -28 9 -20 5 9 10
0 14 -28 7 -51 13 -59 30 -35 14 18 77 30 77 14 0 -5 5 -9 10 -9 6 0 10 11 10
24 0 44 18 76 42 76 42 0 50 -14 56 -90 3 -44 8 -67 13 -58 7 10 9 9 9 -5 0
-16 8 -18 63 -16 53 2 63 5 69 23 6 20 6 20 7 -1 1 -13 7 -23 16 -23 12 0 15
15 14 76 -1 55 3 79 12 85 8 5 42 9 77 9 75 0 82 15 11 23 -100 12 -94 -8 -91
328 4 292 -13 712 -43 1069 -8 100 -10 169 -4 176 5 6 18 48 29 94 20 79 20
83 3 97 -10 8 -12 11 -4 7 17 -9 31 13 31 52 0 30 -1 31 -38 28 -21 -1 -45 2
-53 8 -10 7 -1 8 29 5 l43 -5 -16 24 c-14 21 -14 24 0 24 12 0 15 16 15 93 0
100 -4 111 -38 121 -12 4 -20 12 -17 17 10 15 -15 49 -35 49 -18 0 -20 7 -20
55 0 45 3 55 18 56 9 1 -8 5 -38 9 -76 11 -190 11 -217 0z m139 -550 c22 0 22
-2 4 -61 -12 -38 -13 -159 -9 -697 3 -458 1 -652 -6 -652 -6 0 -11 9 -11 20 0
26 -17 26 -25 0 -3 -11 -10 -20 -14 -20 -9 0 -26 444 -17 458 3 5 1 201 -5
436 l-11 427 27 55 c20 40 30 53 38 45 6 -6 19 -11 29 -11z m171 13 c-7 -2
-21 -2 -30 0 -10 3 -4 5 12 5 17 0 24 -2 18 -5z m-217 -1551 c12 -23 14 -24
15 -7 1 19 2 26 8 50 6 24 19 -46 20 -107 1 -61 -1 -68 -18 -68 -11 0 -23 -4
-26 -10 -18 -29 -25 0 -24 98 1 59 3 99 6 89 3 -10 11 -30 19 -45z"/>
<path d="M3035 2470 c-10 -17 -10 -130 0 -130 6 0 11 31 13 70 3 68 0 81 -13
60z"/>
<path d="M2450 2403 c0 -38 -3 -78 -6 -90 -5 -19 -2 -23 19 -23 14 0 27 7 31
15 3 8 17 15 31 15 28 0 29 7 19 98 l-7 52 -43 0 -44 0 0 -67z"/>
<path d="M3346 2431 c-16 -17 -16 -19 0 -25 11 -4 15 -2 11 8 -3 7 0 19 6 25
6 6 9 11 6 11 -3 0 -14 -8 -23 -19z"/>
<path d="M4370 2430 c-82 -8 -133 -27 -126 -45 2 -7 0 -18 -4 -26 -6 -9 -1
-22 17 -41 29 -30 41 -85 42 -185 1 -40 -3 -63 -11 -66 -7 -3 -1 -6 15 -6 49
-2 32 -28 -42 -66 -30 -15 -78 -50 -108 -78 -38 -36 -51 -44 -45 -28 8 23 -5
104 -26 152 -24 58 -82 74 -140 39 -20 -12 -50 -20 -78 -20 -42 0 -46 -2 -60
-35 -7 -19 -14 -45 -14 -57 -1 -20 -2 -21 -11 -6 -15 27 -25 188 -11 188 18 0
-6 42 -39 69 -17 13 -41 24 -54 25 -14 0 -25 4 -25 9 0 4 -12 7 -27 7 -21 0
-24 -3 -15 -12 8 -8 12 -62 12 -178 0 -92 -2 -169 -5 -171 -2 -3 -19 -3 -38
-1 l-34 4 -1 96 c-1 54 -5 130 -8 171 -5 57 -3 75 7 82 20 13 -388 11 -412 -1
-10 -6 -19 -18 -19 -28 0 -15 2 -15 10 -2 8 12 10 10 10 -8 0 -13 -4 -20 -10
-17 -7 4 -10 -50 -10 -154 0 -134 -2 -161 -15 -161 -7 0 -37 -5 -65 -11 l-51
-11 3 -196 3 -197 62 -61 c73 -72 89 -114 99 -264 5 -74 10 -100 20 -100 11 0
14 -25 14 -117 0 -127 1 -130 66 -226 l31 -46 7 -222 c7 -198 6 -223 -9 -239
-16 -17 -15 -19 3 -29 11 -6 23 -7 27 -3 4 4 4 -4 0 -18 l-8 -25 22 25 c20 22
21 22 12 3 -16 -33 -13 -52 4 -29 13 17 15 17 15 3 0 -19 28 -13 47 11 10 12
15 13 28 2 10 -8 15 -9 15 -1 0 6 5 11 10 11 6 0 9 -5 8 -12 -2 -6 4 -13 13
-15 13 -3 18 6 23 34 8 51 8 14 -3 423 -6 201 -12 411 -13 468 l-3 102 103 0
102 0 0 25 c0 14 4 25 8 25 5 0 5 26 0 58 -4 31 -7 105 -6 164 1 120 2 122 88
132 l44 5 -39 -34 c-22 -19 -35 -34 -29 -35 7 0 14 -9 17 -21 4 -15 -1 -23
-19 -31 -24 -11 -32 -32 -15 -42 5 -3 12 2 16 12 14 37 23 -14 22 -133 l-1
-120 99 -3 c55 -2 123 0 151 3 51 6 52 7 49 38 -2 18 -4 91 -5 162 -2 131 -12
178 -43 204 -24 19 -12 31 32 31 32 0 40 -4 45 -22 3 -13 9 -109 13 -215 l6
-192 26 -3 26 -3 5 -505 c3 -278 7 -506 8 -507 1 -1 9 0 17 3 8 4 15 1 15 -5
0 -9 5 -9 20 -1 20 11 26 1 21 -38 -1 -6 3 -12 10 -12 11 0 9 -28 -6 -63 -6
-15 0 -17 58 -17 l65 0 3 79 c2 44 8 83 12 88 5 4 156 7 335 6 308 -1 316 -1
142 7 -222 11 -412 28 -423 39 -8 8 8 965 17 979 10 17 17 334 6 327 -14 -8
-13 -4 6 33 20 41 22 42 97 50 l62 7 5 125 5 125 35 2 c19 1 52 2 73 2 47 1
49 21 2 21 -34 0 -47 13 -22 23 7 3 4 6 -6 6 -10 1 -16 5 -13 10 4 5 -3 7 -14
4 -21 -6 -22 -30 -1 -25 6 1 11 -3 11 -9 0 -15 -53 -7 -67 11 -6 8 -9 18 -7
22 3 5 0 8 -5 8 -15 0 -14 37 2 43 6 2 -4 9 -23 15 l-35 10 43 1 c43 1 44 1
37 31 -6 26 -4 30 15 30 13 0 19 4 14 11 -8 13 -6 168 2 216 4 20 13 33 26 36
30 8 21 68 -13 84 -33 16 -231 24 -329 13z m295 -20 c15 -6 25 -16 22 -23 -9
-25 -187 -3 -187 24 0 12 133 11 165 -1z m-260 -20 c-3 -5 -15 -10 -26 -10
-10 0 -19 5 -19 10 0 6 12 10 26 10 14 0 23 -4 19 -10z m228 -139 c4 -1 7 -35
7 -76 l0 -75 -45 0 -44 0 2 73 c2 62 5 73 22 78 11 3 27 5 35 3 8 -1 18 -3 23
-3z m-1297 -21 c61 0 93 -4 89 -10 -3 -5 -39 -11 -78 -11 -40 -1 -64 -3 -54
-6 20 -5 20 -8 22 -170 l1 -122 -34 -6 c-19 -3 -37 -3 -40 0 -4 3 -7 74 -7
157 0 112 -3 152 -12 155 -7 3 -13 9 -13 15 0 6 7 7 16 4 9 -3 58 -6 110 -6z
m1279 -180 c8 -13 -5 -13 -25 0 -13 8 -13 10 2 10 9 0 20 -4 23 -10z m-185
-15 c0 -8 -4 -15 -10 -15 -5 0 -10 7 -10 15 0 8 5 15 10 15 6 0 10 -7 10 -15z
m130 -54 c-12 -23 -30 -36 -30 -22 0 10 27 41 36 41 3 0 0 -9 -6 -19z m-135
-71 c-4 -6 -15 -8 -25 -5 -11 3 -29 1 -40 -5 -12 -6 -29 -9 -38 -7 -14 3 -12
6 8 15 33 14 103 15 95 2z m55 -16 c14 -8 17 -13 7 -10 -15 5 -17 2 -11 -17 4
-12 11 -24 16 -25 13 -5 -11 -32 -29 -32 -8 0 -21 16 -29 35 -18 43 -18 45 2
45 8 0 12 5 9 10 -9 14 6 12 35 -6z m-787 -1 c-7 -2 -19 -2 -25 0 -7 3 -2 5
12 5 14 0 19 -2 13 -5z m-443 -25 c-39 -11 -63 -28 -39 -28 11 0 11 -2 1 -8
-7 -5 -16 -28 -21 -53 -5 -24 -9 -37 -10 -28 -1 9 -8 19 -16 23 -8 3 -12 12
-9 20 3 8 -1 29 -9 45 -15 29 -14 30 12 34 14 2 49 4 76 5 50 0 50 0 15 -10z
m510 -25 c0 -12 -2 -12 -15 1 -8 8 -15 17 -15 20 0 3 7 3 15 0 8 -4 15 -13 15
-21z m797 -18 c-6 -19 -12 -33 -15 -31 -7 7 9 66 18 66 4 0 3 -16 -3 -35z
m-193 -62 c-7 -2 -8 -20 -4 -50 9 -60 3 -86 -18 -74 -23 13 -26 128 -3 141 10
5 20 5 26 -2 7 -7 6 -12 -1 -15z m167 -10 c-12 -20 -14 -14 -5 12 4 9 9 14 11
11 3 -2 0 -13 -6 -23z m36 -45 c-3 -7 -5 -2 -5 12 0 14 2 19 5 13 2 -7 2 -19
0 -25z m-550 -94 c-3 -3 -12 -4 -19 -1 -8 3 -5 6 6 6 11 1 17 -2 13 -5z"/>
<path d="M3528 2333 c6 -2 18 -2 25 0 6 3 1 5 -13 5 -14 0 -19 -2 -12 -5z"/>
<path d="M2770 2321 c0 -7 -4 -9 -10 -6 -5 3 -10 1 -10 -4 0 -6 12 -11 28 -11
15 0 23 4 17 8 -5 4 -13 11 -17 16 -5 5 -8 4 -8 -3z"/>
<path d="M3650 2281 c0 -5 5 -13 10 -16 6 -3 10 -2 10 4 0 5 -4 13 -10 16 -5
3 -10 2 -10 -4z"/>
<path d="M3798 2153 c7 -3 16 -2 19 1 4 3 -2 6 -13 5 -11 0 -14 -3 -6 -6z"/>
<path d="M3858 2153 c12 -2 32 -2 45 0 12 2 2 4 -23 4 -25 0 -35 -2 -22 -4z"/>
<path d="M2738 1913 c7 -3 16 -2 19 1 4 3 -2 6 -13 5 -11 0 -14 -3 -6 -6z"/>
<path d="M2055 1891 c-3 -5 -1 -12 5 -16 5 -3 10 1 10 9 0 18 -6 21 -15 7z"/>
<path d="M4695 1780 c4 -25 10 -68 14 -97 4 -29 10 -55 13 -58 11 -12 93 -13
112 -3 19 10 19 11 -2 29 -15 12 -18 19 -10 22 8 3 6 6 -4 6 -10 1 -18 6 -18
11 0 6 -5 16 -10 23 -6 7 -24 29 -40 51 -17 21 -30 35 -30 30 0 -4 -7 1 -16
12 -14 18 -15 16 -9 -26z"/>
<path d="M2270 969 c0 -5 9 -9 20 -9 11 0 20 2 20 4 0 2 -9 6 -20 9 -11 3 -20
1 -20 -4z"/>
<path d="M1850 689 c0 -5 5 -7 10 -4 6 3 10 8 10 11 0 2 -4 4 -10 4 -5 0 -10
-5 -10 -11z"/>
<path d="M1098 570 c-11 -82 -10 -136 2 -124 7 7 10 46 8 95 -3 84 -3 84 -10
29z"/>
<path d="M1090 416 c0 -8 4 -17 9 -20 5 -4 7 3 4 14 -6 23 -13 26 -13 6z"/>
<path d="M1142 243 c2 -12 14 -19 37 -21 28 -3 33 -1 27 13 -3 9 -6 19 -6 21
0 2 -14 4 -31 4 -24 0 -30 -4 -27 -17z"/>
<path d="M1284 238 c-3 -11 -3 -22 0 -25 2 -3 41 -2 86 2 68 6 81 10 78 24 -3
13 -17 16 -80 17 -68 1 -78 -1 -84 -18z"/>
<path d="M1468 233 c7 -3 16 -2 19 1 4 3 -2 6 -13 5 -11 0 -14 -3 -6 -6z"/>
<path d="M1108 203 c7 -3 16 -2 19 1 4 3 -2 6 -13 5 -11 0 -14 -3 -6 -6z"/>
<path d="M1423 203 c15 -2 37 -2 50 0 12 2 0 4 -28 4 -27 0 -38 -2 -22 -4z"/>
<path d="M1163 193 c9 -2 23 -2 30 0 6 3 -1 5 -18 5 -16 0 -22 -2 -12 -5z"/>
<path d="M1308 193 c12 -2 30 -2 40 0 9 3 -1 5 -23 4 -22 0 -30 -2 -17 -4z"/>
<path d="M3331 74 c0 -11 3 -14 6 -6 3 7 2 16 -1 19 -3 4 -6 -2 -5 -13z"/>
<path d="M3353 40 c0 -25 2 -35 4 -22 2 12 2 32 0 45 -2 12 -4 2 -4 -23z"/>
<path d="M4182 30 c0 -14 2 -19 5 -12 2 6 2 18 0 25 -3 6 -5 1 -5 -13z"/>
<path d="M4207 28 c-4 -12 -4 -24 -2 -27 3 -2 5 2 5 10 0 11 2 11 10 -1 8 -12
10 -11 10 7 0 30 -16 38 -23 11z"/>
<path d="M3482 20 c0 -14 2 -19 5 -12 2 6 2 18 0 25 -3 6 -5 1 -5 -13z"/>
</g>
</svg>
